# xmcd CD database file
#
# Track frame offsets:
#	150
#	28302
#	54217
#	83453
#	104994
#	123992
#	135246
#	147610
#	159601
#	169441
#	182035
#	192704
#	202248
#	213480
#	225285
#	236051
#	249899
#
# Disc length: 3474 seconds
#
# Revision: 0
# Processed by: cddbd v1.5.2PL0 Copyright (c) Steve Scherf et al.
# Submitted via: CDex 1.51
#
DISCID=fa0d9011
DTITLE=Barney Kessel - Seven Classic Albums CD 4
DYEAR=1900
DGENRE=Jazz
TTITLE0=When Johny Comes Marching Home
TTITLE1=New Rhumba
TTITLE2=My Man's Gone Now
TTITLE3=My Funny Valentine
TTITLE4=Pedal Point
TTITLE5=Love For Sale
TTITLE6=String Of Pearls
TTITLE7=They Can't Take That Away From Me
TTITLE8=Summertine
TTITLE9=You Came A Long Way From St. Louis
TTITLE10=Muscrat Ramble
TTITLE11=Heataches
TTITLE12=It Ain't Necessarily So
TTITLE13=Ja Da
TTITLE14=Sweet Georgia Brown
TTITLE15=Tumbling Tumbleweeds
TTITLE16=Bye, Bye, Blues
EXTD=
EXTT0=
EXTT1=
EXTT2=
EXTT3=
EXTT4=
EXTT5=
EXTT6=
EXTT7=
EXTT8=
EXTT9=
EXTT10=
EXTT11=
EXTT12=
EXTT13=
EXTT14=
EXTT15=
EXTT16=
PLAYORDER=
